<svg width="140" height="125" viewBox="0 0 140 125" fill="none" xmlns="http://www.w3.org/2000/svg">
  <path
    fill-rule="evenodd"
    clip-rule="evenodd"
    d="M33 112H107C114 112 120 106 121 99L105 45C103 37 96 32 88 32H52C44 32 37 37 35 45L19 99C20 106 26 112 33 112ZM33 104C30 104 28 102 29 98L44 49C45 45 48 42 52 42H88C92 42 95 45 96 49L111 98C112 102 110 104 107 104H33Z"
    fill="#202124"
  />
  <path
    fill-rule="evenodd"
    clip-rule="evenodd"
    d="M57 33L52 20C49 13 53 8 60 8H80C87 8 91 13 88 20L83 33H57ZM62 27L59 20C58 18 59 16 61 16H79C81 16 82 18 81 20L78 27H62Z"
    fill="#202124"
  />
  <path d="M46 56H53V69L62 56H70L60 70L71 87H63L55 74L53 77V87H46V56Z" fill="#202124" />
  <path
    d="M92 64C92 59 88 56 83 56H77C70 56 66 60 66 67V76C66 83 70 87 77 87H84C90 87 94 83 94 77V72H82V78H87C86 80 85 81 83 81H78C75 81 73 79 73 76V67C73 64 75 62 78 62H82C85 62 87 63 87 66H92V64Z"
    fill="#202124"
  />
</svg>
